<svg width="18" height="20" viewBox="0 0 18 20" fill="none" xmlns="http://www.w3.org/2000/svg">
<path d="M1.66669 5.41667H16.3334M15.4167 5.41667L14.6219 16.5468C14.589 17.0094 14.382 17.4422 14.0427 17.7583C13.7034 18.0743 13.2569 18.25 12.7932 18.25H5.20685C4.74315 18.25 4.29666 18.0743 3.95733 17.7583C3.618 17.4422 3.41103 17.0094 3.3781 16.5468L2.58335 5.41667H15.4167ZM7.16669 9.08333V14.5833V9.08333ZM10.8334 9.08333V14.5833V9.08333ZM11.75 5.41667V2.66667C11.75 2.42355 11.6534 2.19039 11.4815 2.01849C11.3096 1.84658 11.0765 1.75 10.8334 1.75H7.16669C6.92357 1.75 6.69041 1.84658 6.51851 2.01849C6.3466 2.19039 6.25002 2.42355 6.25002 2.66667V5.41667H11.75Z" stroke="#C2C6D2" stroke-width="1.83333" stroke-linecap="round" stroke-linejoin="round"/>
</svg>
