<svg width="18" height="18" viewBox="0 0 18 18" fill="none" xmlns="http://www.w3.org/2000/svg">
<path d="M5.33335 12.6666H3.50002C3.01379 12.6666 2.54747 12.4735 2.20366 12.1297C1.85984 11.7858 1.66669 11.3195 1.66669 10.8333V3.49996C1.66669 3.01373 1.85984 2.54741 2.20366 2.2036C2.54747 1.85978 3.01379 1.66663 3.50002 1.66663H10.8334C11.3196 1.66663 11.7859 1.85978 12.1297 2.2036C12.4735 2.54741 12.6667 3.01373 12.6667 3.49996V5.33329M7.16669 16.3333H14.5C14.9863 16.3333 15.4526 16.1401 15.7964 15.7963C16.1402 15.4525 16.3334 14.9862 16.3334 14.5V7.16663C16.3334 6.6804 16.1402 6.21408 15.7964 5.87026C15.4526 5.52645 14.9863 5.33329 14.5 5.33329H7.16669C6.68046 5.33329 6.21414 5.52645 5.87033 5.87026C5.52651 6.21408 5.33335 6.6804 5.33335 7.16663V14.5C5.33335 14.9862 5.52651 15.4525 5.87033 15.7963C6.21414 16.1401 6.68046 16.3333 7.16669 16.3333Z" stroke="#C2C6D2" stroke-width="1.83333" stroke-linecap="round" stroke-linejoin="round"/>
</svg>
