<svg width="22" height="22" viewBox="0 0 22 22" fill="none" xmlns="http://www.w3.org/2000/svg">
  <path d="M11.9167 14.6666V15.5833C11.9167 16.3126 11.6269 17.0121 11.1112 17.5278C10.5955 18.0436 9.89601 18.3333 9.16667 18.3333H5.5C4.77065 18.3333 4.07118 18.0436 3.55546 17.5278C3.03973 17.0121 2.75 16.3126 2.75 15.5833V6.41663C2.75 5.68728 3.03973 4.98781 3.55546 4.47208C4.07118 3.95636 4.77065 3.66663 5.5 3.66663H9.16667C9.89601 3.66663 10.5955 3.95636 11.1112 4.47208C11.6269 4.98781 11.9167 5.68728 11.9167 6.41663V7.33329M15.5833 14.6666L19.25 11L15.5833 14.6666ZM19.25 11L15.5833 7.33329L19.25 11ZM19.25 11H6.41667H19.25Z" stroke="#EF4444" stroke-width="1.83333" stroke-linecap="round" stroke-linejoin="round"/>
</svg>
